<?xml version="1.0" encoding="utf-8"?>
<!-- Generator: Adobe Illustrator 19.0.0, SVG Export Plug-In . SVG Version: 6.00 Build 0)  -->
<svg version="1.1" id="layer" xmlns="http://www.w3.org/2000/svg" xmlns:xlink="http://www.w3.org/1999/xlink" x="0px" y="0px"
	 viewBox="-153 -46 652 652" style="enable-background:new -153 -46 652 652;" xml:space="preserve">
<path d="M-23.8,313.3c14.3-25.8,5-58.4-20.8-72.7c0,0,0,0,0,0l-46.7-26l-26,46.7c-14.4,25.8-5,58.4,20.8,72.8
	C-70.7,348.5-38.1,339.2-23.8,313.3L-23.8,313.3z M58.1,342.9c-4.1,0-8.2-0.5-12.2-1.7c-3.5-1.1-6.9-2.7-10-4.7
	c-2.9-1.9-5.6-4.2-8-6.8c-2.3-2.5-4.5-5.2-6.3-8v19.1h-8.5V213.9h8.5v58c1.9-3,4-5.7,6.4-8.3c2.4-2.6,5.1-5,8.1-7
	c3.1-2,6.4-3.6,9.9-4.8c3.9-1.3,8-1.9,12.1-1.8c5.4,0,10.7,1.1,15.7,3.1c5.2,2.1,9.9,5.2,13.8,9c4.2,4.2,7.5,9.1,9.8,14.5
	c2.6,6.1,3.8,12.7,3.7,19.3v0.3c0.1,6.6-1.2,13.2-3.7,19.3c-2.3,5.4-5.6,10.4-9.8,14.6c-4,3.9-8.7,7.1-13.8,9.2
	C68.9,341.7,63.6,342.8,58.1,342.9z M57.4,334.7c4.7,0,9.3-0.8,13.7-2.6c4.2-1.7,7.9-4.2,11.1-7.4c3.3-3.4,5.8-7.5,7.4-11.9
	c1.9-5.1,2.8-10.6,2.7-16v-0.3c0.1-5.4-0.9-10.8-2.8-15.8c-1.7-4.5-4.3-8.6-7.6-12.1c-3.2-3.3-7-5.9-11.2-7.7
	c-8.6-3.6-18.3-3.6-26.8,0.1c-4.3,1.8-8.3,4.5-11.6,7.8C25,276.1,21,286,21.1,296.3v0.4c-0.1,5.4,1,10.7,3.1,15.6
	c3.7,8.9,10.8,16,19.7,19.7C48.1,333.8,52.7,334.7,57.4,334.7z M129,213.9h8.5v126.9H129V213.9z M210.4,342.9
	c-6.3,0.1-12.5-1.2-18.2-3.7c-5.4-2.4-10.2-5.8-14.3-10c-4.1-4.2-7.3-9.2-9.4-14.6c-2.3-5.7-3.5-11.7-3.4-17.8v-0.3
	c-0.1-12.1,4.6-23.8,13-32.5c4.1-4.3,9.1-7.7,14.5-10.2c5.7-2.5,12-3.8,18.3-3.7c6.3-0.1,12.5,1.2,18.2,3.7
	c5.4,2.4,10.2,5.8,14.3,10c4.1,4.2,7.3,9.2,9.5,14.6c2.3,5.7,3.4,11.7,3.4,17.8v0.3c0.1,12.1-4.6,23.8-13,32.5
	c-4.1,4.3-9.1,7.8-14.5,10.2C222.9,341.7,216.7,342.9,210.4,342.9z M210.7,334.7c5,0.1,10-0.9,14.6-3c4.4-2,8.3-4.8,11.5-8.2
	c3.2-3.5,5.7-7.6,7.4-12c1.8-4.7,2.7-9.7,2.7-14.7v-0.3c0-5.1-0.9-10.2-2.8-14.9c-1.8-4.5-4.4-8.7-7.8-12.2
	c-3.3-3.5-7.3-6.2-11.7-8.1c-4.5-2-9.4-3-14.4-3c-5-0.1-10,0.9-14.6,3c-4.3,1.9-8.3,4.7-11.5,8.1c-3.3,3.5-5.8,7.6-7.5,12
	c-1.8,4.7-2.7,9.7-2.7,14.7v0.3c0,5.1,0.9,10.2,2.8,15c1.8,4.5,4.4,8.7,7.8,12.2c3.3,3.5,7.3,6.2,11.7,8.1
	C200.8,333.7,205.7,334.7,210.7,334.7z M321.6,342.9c-6.3,0.1-12.5-1.2-18.2-3.7c-5.4-2.4-10.2-5.8-14.3-10
	c-4.1-4.2-7.3-9.1-9.5-14.6c-2.3-5.7-3.4-11.7-3.4-17.8v-0.3c-0.1-12.1,4.6-23.8,13-32.5c4.1-4.3,9.1-7.7,14.5-10.2
	c5.7-2.5,12-3.8,18.2-3.7c6.3-0.1,12.5,1.2,18.2,3.7c5.4,2.4,10.2,5.8,14.3,10c4.1,4.2,7.3,9.2,9.5,14.6c2.3,5.6,3.4,11.7,3.4,17.7
	v0.3c0.1,12.1-4.6,23.8-13,32.5c-4.1,4.3-9.1,7.8-14.5,10.2C334.1,341.6,327.9,342.9,321.6,342.9z M322,334.7c5,0.1,10-0.9,14.6-3
	c4.4-2,8.3-4.8,11.5-8.2c3.3-3.5,5.8-7.6,7.5-12c1.8-4.7,2.7-9.7,2.7-14.7v-0.3c0-5.1-0.9-10.2-2.8-15c-1.8-4.5-4.4-8.7-7.8-12.2
	c-3.3-3.5-7.3-6.2-11.7-8.1c-4.5-2-9.4-3-14.4-3c-5-0.1-10,0.9-14.6,3c-4.3,1.9-8.3,4.7-11.5,8.1c-3.3,3.5-5.8,7.6-7.5,12
	c-1.8,4.7-2.7,9.7-2.7,14.7v0.3c0,5.1,0.9,10.2,2.8,15c1.8,4.5,4.4,8.7,7.8,12.2c3.3,3.5,7.3,6.2,11.7,8.1
	C312.1,333.6,317,334.7,322,334.7z M430.9,342.9c-5.4,0-10.7-1.1-15.7-3.1c-5.2-2.1-9.8-5.1-13.8-9c-4.2-4.1-7.5-9.1-9.8-14.5
	c-2.6-6.2-3.9-12.8-3.7-19.4v-0.3c-0.1-6.7,1.2-13.3,3.7-19.4c2.3-5.5,5.6-10.4,9.8-14.6c4-3.9,8.7-7.1,13.8-9.2
	c8.8-3.7,18.7-4.2,27.9-1.5c3.5,1.1,6.9,2.7,10,4.7c2.9,2,5.6,4.3,8,6.8c2.3,2.5,4.4,5.2,6.3,8v-57.4h8.5v126.9h-8.5V321
	c-2,2.9-4.2,5.7-6.5,8.3c-4.8,5.4-11,9.5-17.9,11.7C439.1,342.3,435,342.9,430.9,342.9z M431.7,334.7c4.6,0,9.2-0.9,13.5-2.8
	c4.3-1.8,8.3-4.5,11.6-7.8c7.3-7.3,11.3-17.2,11.2-27.5v-0.4c0.1-5.3-1-10.6-3-15.6c-3.7-8.9-10.8-16-19.7-19.7
	c-4.3-1.8-8.9-2.8-13.5-2.8c-4.7,0-9.3,0.9-13.7,2.6c-4.2,1.7-7.9,4.2-11.1,7.4c-3.3,3.4-5.8,7.5-7.4,11.9
	c-1.9,5.1-2.8,10.5-2.7,15.9v0.3c-0.1,5.4,0.9,10.8,2.8,15.8c1.7,4.5,4.3,8.6,7.6,12.1C413.6,331,422.5,334.7,431.7,334.7
	L431.7,334.7z"/>
</svg>
